<svg data-v-423bf9ae="" xmlns="http://www.w3.org/2000/svg" viewBox="0 0 415 90" class="iconLeft"><!----><!----><!----><g data-v-423bf9ae="" id="d80de439-6560-45fa-9a6e-2f9335c60e94" fill="white" transform="matrix(5.670355841088687,0,0,5.670355841088687,102.4747445620753,6.4378402702063795)"><path d="M8.00 10.63L8.00 10.63L8.00 10.63Q8.62 9.60 8.74 8.61L8.74 8.61L8.74 8.61Q8.74 1.50 8.74 1.51L8.74 1.51L7.79 1.51L7.79 5.69L7.79 5.69Q7.18 4.95 6.43 4.58L6.43 4.58L6.43 4.58Q5.67 4.22 4.78 4.22L4.78 4.22L4.78 4.22Q3.19 4.22 2.06 5.37L2.06 5.37L2.06 5.37Q0.94 6.53 0.94 8.18L0.94 8.18L0.94 8.18Q0.94 9.80 2.07 10.94L2.07 10.94L2.07 10.94Q3.21 12.09 4.81 12.09L4.81 12.09L4.81 12.09Q5.72 12.09 6.52 11.74L6.52 11.74L6.52 11.74Q7.33 11.39 8.00 10.63ZM4.89 11.17L4.89 11.17L4.89 11.17Q4.07 11.17 3.39 10.77L3.39 10.77L3.39 10.77Q2.71 10.37 2.31 9.66L2.31 9.66L2.31 9.66Q1.91 8.95 1.91 8.14L1.91 8.14L1.91 8.14Q1.91 7.35 2.31 6.62L2.31 6.62L2.31 6.62Q2.72 5.89 3.41 5.49L3.41 5.49L3.41 5.49Q4.09 5.09 4.87 5.09L4.87 5.09L4.87 5.09Q5.67 5.09 6.38 5.49L6.38 5.49L6.38 5.49Q7.09 5.89 7.47 6.58L7.47 6.58L7.47 6.58Q7.85 7.27 7.85 8.11L7.85 8.11L7.85 8.11Q7.85 9.42 6.99 10.29L6.99 10.29L6.99 10.29Q6.13 11.17 4.89 11.17ZM14.26 4.22L14.26 4.22L14.26 4.22Q15.99 4.22 17.13 5.47L17.13 5.47L17.13 5.47Q18.16 6.62 18.16 8.18L18.16 8.18L18.16 8.18Q18.16 9.75 17.07 10.92L17.07 10.92L17.07 10.92Q15.98 12.09 14.26 12.09L14.26 12.09L14.26 12.09Q12.54 12.09 11.45 10.92L11.45 10.92L11.45 10.92Q10.36 9.75 10.36 8.18L10.36 8.18L10.36 8.18Q10.36 6.62 11.39 5.48L11.39 5.48L11.39 5.48Q12.53 4.22 14.26 4.22ZM14.26 5.16L14.26 5.16L14.26 5.16Q13.06 5.16 12.20 6.05L12.20 6.05L12.20 6.05Q11.34 6.94 11.34 8.20L11.34 8.20L11.34 8.20Q11.34 9.01 11.73 9.72L11.73 9.72L11.73 9.72Q12.13 10.42 12.80 10.80L12.80 10.80L12.80 10.80Q13.47 11.18 14.26 11.18L14.26 11.18L14.26 11.18Q15.07 11.18 15.73 10.80L15.73 10.80L15.73 10.80Q16.40 10.42 16.79 9.72L16.79 9.72L16.79 9.72Q17.18 9.01 17.18 8.20L17.18 8.20L17.18 8.20Q17.18 6.94 16.32 6.05L16.32 6.05L16.32 6.05Q15.46 5.16 14.26 5.16ZM19.93 12.09L19.93 9.18L19.93 7.98L19.93 7.98Q20.05 6.45 20.57 5.74L20.57 5.74L20.57 5.74Q21 5.09 21.70 4.71L21.70 4.71L21.70 4.71Q22.16 4.42 23.00 4.40L23.00 4.40L23.00 4.40Q23.55 4.40 24.11 4.60L24.11 4.60L24.11 4.60Q24.67 4.81 24.98 5.15L24.98 5.15L24.98 5.15Q25.29 5.49 25.60 6.17L25.60 6.17L25.60 6.17Q25.77 5.74 26.32 5.15L26.32 5.15L26.32 5.15Q26.58 4.92 27.01 4.70L27.01 4.70L27.01 4.70Q27.30 4.52 28.34 4.40L28.34 4.40L28.34 4.40Q29.12 4.40 29.84 4.79L29.84 4.79L29.84 4.79Q30.56 5.17 30.85 5.88L30.85 5.88L30.85 5.88Q31.14 6.59 31.14 7.99L31.14 7.99L31.14 12.09L30.15 12.09L30.15 7.99L30.15 7.99Q30.15 6.79 29.98 6.34L29.98 6.34L29.98 6.34Q29.81 5.89 29.39 5.61L29.39 5.61L29.39 5.61Q28.98 5.33 28.39 5.33L28.39 5.33L28.39 5.33Q27.28 5.41 26.50 6.41L26.50 6.41L26.50 6.41Q26.19 6.83 26.03 8.29L26.03 8.29L26.03 12.09L25.07 12.09L25.07 8.24L25.07 8.24Q25.07 6.89 24.77 6.40L24.77 6.40L24.77 6.40Q24.47 5.91 24.05 5.62L24.05 5.62L24.05 5.62Q23.63 5.33 23.01 5.33L23.01 5.33L23.01 5.33Q22.34 5.33 21.86 5.67L21.86 5.67L21.86 5.67Q21.38 6.02 21.10 6.70L21.10 6.70L21.10 6.70Q20.83 7.38 20.88 8.91L20.88 8.91L20.88 12.09L19.93 12.09ZM33.76 10.63L33.76 10.63L33.76 10.63Q33.15 9.60 33.02 8.61L33.02 8.61L33.02 8.61Q33.02 1.50 33.02 1.51L33.02 1.51L33.98 1.51L33.98 5.69L33.98 5.69Q34.59 4.95 35.34 4.58L35.34 4.58L35.34 4.58Q36.09 4.22 36.99 4.22L36.99 4.22L36.99 4.22Q38.58 4.22 39.70 5.37L39.70 5.37L39.70 5.37Q40.83 6.53 40.83 8.18L40.83 8.18L40.83 8.18Q40.83 9.80 39.70 10.94L39.70 10.94L39.70 10.94Q38.56 12.09 36.96 12.09L36.96 12.09L36.96 12.09Q36.05 12.09 35.24 11.74L35.24 11.74L35.24 11.74Q34.44 11.39 33.76 10.63ZM36.88 11.17L36.88 11.17L36.88 11.17Q37.69 11.17 38.37 10.77L38.37 10.77L38.37 10.77Q39.05 10.37 39.46 9.66L39.46 9.66L39.46 9.66Q39.86 8.95 39.86 8.14L39.86 8.14L39.86 8.14Q39.86 7.35 39.45 6.62L39.45 6.62L39.45 6.62Q39.05 5.89 38.36 5.49L38.36 5.49L38.36 5.49Q37.67 5.09 36.89 5.09L36.89 5.09L36.89 5.09Q36.10 5.09 35.39 5.49L35.39 5.49L35.39 5.49Q34.68 5.89 34.30 6.58L34.30 6.58L34.30 6.58Q33.91 7.27 33.91 8.11L33.91 8.11L33.91 8.11Q33.91 9.42 34.77 10.29L34.77 10.29L34.77 10.29Q35.64 11.17 36.88 11.17ZM46.31 4.22L46.31 4.22L46.31 4.22Q48.04 4.22 49.18 5.47L49.18 5.47L49.18 5.47Q50.21 6.62 50.21 8.18L50.21 8.18L50.21 8.18Q50.21 9.75 49.12 10.92L49.12 10.92L49.12 10.92Q48.02 12.09 46.31 12.09L46.31 12.09L46.31 12.09Q44.58 12.09 43.49 10.92L43.49 10.92L43.49 10.92Q42.40 9.75 42.40 8.18L42.40 8.18L42.40 8.18Q42.40 6.62 43.44 5.48L43.44 5.48L43.44 5.48Q44.58 4.22 46.31 4.22ZM46.31 5.16L46.31 5.16L46.31 5.16Q45.11 5.16 44.25 6.05L44.25 6.05L44.25 6.05Q43.39 6.94 43.39 8.20L43.39 8.20L43.39 8.20Q43.39 9.01 43.78 9.72L43.78 9.72L43.78 9.72Q44.17 10.42 44.84 10.80L44.84 10.80L44.84 10.80Q45.51 11.18 46.31 11.18L46.31 11.18L46.31 11.18Q47.11 11.18 47.78 10.80L47.78 10.80L47.78 10.80Q48.45 10.42 48.84 9.72L48.84 9.72L48.84 9.72Q49.23 9.01 49.23 8.20L49.23 8.20L49.23 8.20Q49.23 6.94 48.36 6.05L48.36 6.05L48.36 6.05Q47.50 5.16 46.31 5.16ZM54.69 11.03L54.69 11.03L54.69 11.03Q53.98 11.41 53.29 11.09L53.29 11.09L53.29 11.09Q52.46 10.45 52.50 9.28L52.50 9.28L52.50 6.10L54.28 6.10L54.28 5.28L52.49 5.28L52.49 1.65L51.52 1.65L51.52 9.44L51.52 9.44Q51.51 10.26 51.90 10.94L51.90 10.94L51.90 10.94Q52.54 12.03 53.65 12.09L53.65 12.09L53.65 12.09Q54.24 12.11 54.99 11.83L54.99 11.83L54.99 11.83Q54.87 11.54 54.69 11.03Z"></path></g><!----><g data-v-423bf9ae="" id="06c0a719-f14a-434a-921c-03b80b77d3d8" transform="matrix(1.0975609756097562,0,0,1.0975609756097562,-10.87804878048781,-8.78048780487805)" stroke="none" fill="white"><g><path d="M35 62a2 2 0 1 0 0-4 2 2 0 0 0 0 4zm0 4a6 6 0 1 1 0-12 6 6 0 0 1 0 12zm30-4a2 2 0 1 0 0-4 2 2 0 0 0 0 4zm0 4a6 6 0 1 1 0-12 6 6 0 0 1 0 12z"></path><path d="M50 20c21.434 0 31.382 8.614 36 16.61V10h4v60s0 20-40 20-40-20-40-20V10h4v26.61C18.618 28.614 28.566 20 50 20zM20 60c0-8.284 6.708-15 15.005-15h29.99C73.282 45 80 51.714 80 60c0 8.284-6.708 15-15.005 15h-29.99C26.718 75 20 68.286 20 60zm-6-50a2 2 0 1 0-4 0h4zm76 0a2 2 0 1 0-4 0h4z"></path></g></g><!----></svg>