<svg data-v-423bf9ae="" xmlns="http://www.w3.org/2000/svg" viewBox="0 0 254.1547344281247 163" class="iconAbove"><!----><!----><!----><g data-v-423bf9ae="" id="68e26923-64c2-4635-9210-96167e53d9ee" fill="white" transform="matrix(5.730658879632186,0,0,5.730658879632186,-3.5530107059811087,86.55300633341739)"><path d="M0.62 9.79C0.62 11.89 1.43 13.34 3.02 13.34C3.86 13.34 4.58 12.94 5.05 12.39C5.25 12.84 5.60 13.16 6.16 13.26C6.38 13.12 6.62 12.78 6.69 12.52C6.40 12.25 6.30 11.73 6.30 11.19L6.30 3.79C6.30 3.15 6.13 2.87 5.53 2.87L4.98 2.87L4.89 2.95L4.89 6.59C4.41 6.33 3.88 6.13 3.30 6.13C1.96 6.13 0.62 7.29 0.62 9.79ZM3.36 12.14C2.69 12.14 2.09 11.47 2.09 9.80C2.09 8.09 2.72 7.28 3.50 7.28C3.98 7.28 4.45 7.50 4.89 7.78L4.89 11.26C4.45 11.87 3.85 12.14 3.36 12.14ZM14.08 9.70C14.08 8.55 13.83 7.57 13.09 6.83C12.57 6.31 11.89 6.06 11.06 6.06C10.23 6.06 9.55 6.31 9.03 6.83C8.29 7.57 8.04 8.55 8.04 9.70C8.04 10.86 8.29 11.83 9.03 12.57C9.55 13.09 10.23 13.34 11.06 13.34C11.89 13.34 12.57 13.09 13.09 12.57C13.83 11.83 14.08 10.86 14.08 9.70ZM9.53 9.70C9.53 8.41 9.86 7.17 11.06 7.17C12.26 7.17 12.60 8.41 12.60 9.70C12.60 11.00 12.26 12.24 11.06 12.24C9.86 12.24 9.53 11.00 9.53 9.70ZM19.59 8.78L19.59 13.16C19.78 13.20 20.05 13.22 20.31 13.22C20.57 13.22 20.83 13.20 21.03 13.16L21.03 8.30L21.03 8.29C21.49 7.77 22.06 7.43 22.54 7.43C23.10 7.43 23.38 7.78 23.38 8.76L23.38 12.33C23.38 12.94 23.59 13.26 24.15 13.26C24.50 13.26 24.85 13.12 25.06 12.95C24.88 12.61 24.84 12.17 24.84 11.68L24.84 8.32C24.84 7.10 24.26 6.12 23.03 6.12C22.23 6.12 21.45 6.57 20.80 7.15C20.54 6.54 20.01 6.12 19.21 6.12C18.49 6.12 17.79 6.51 17.22 7.07C17.19 6.51 16.97 6.19 16.42 6.19L15.88 6.19L15.79 6.29L15.79 13.16C16.00 13.20 16.25 13.22 16.52 13.22C16.77 13.22 17.04 13.20 17.23 13.16L17.23 8.29C17.68 7.78 18.27 7.43 18.75 7.43C19.31 7.43 19.59 7.80 19.59 8.78ZM32.63 9.62C32.63 7.57 31.82 6.13 30.21 6.13C29.43 6.13 28.81 6.47 28.36 6.85L28.36 3.79C28.36 3.15 28.18 2.87 27.58 2.87L27.03 2.87L26.95 2.95L26.95 12.81C27.73 13.10 28.60 13.27 29.50 13.27C31.22 13.27 32.65 12.07 32.63 9.62ZM29.89 7.34C30.60 7.34 31.16 8.01 31.16 9.63C31.16 11.34 30.48 12.19 29.51 12.19C29.08 12.19 28.71 12.14 28.36 12.03L28.36 8.13C28.77 7.66 29.34 7.34 29.89 7.34ZM39.91 9.70C39.91 8.55 39.66 7.57 38.92 6.83C38.40 6.31 37.72 6.06 36.89 6.06C36.06 6.06 35.38 6.31 34.86 6.83C34.12 7.57 33.87 8.55 33.87 9.70C33.87 10.86 34.12 11.83 34.86 12.57C35.38 13.09 36.06 13.34 36.89 13.34C37.72 13.34 38.40 13.09 38.92 12.57C39.66 11.83 39.91 10.86 39.91 9.70ZM35.36 9.70C35.36 8.41 35.69 7.17 36.89 7.17C38.09 7.17 38.43 8.41 38.43 9.70C38.43 11.00 38.09 12.24 36.89 12.24C35.69 12.24 35.36 11.00 35.36 9.70ZM44.90 6.23L43.18 6.27L43.18 4.20L43.08 4.10L42.53 4.10C41.93 4.10 41.76 4.38 41.76 5.03L41.76 6.26L40.73 6.23C40.68 6.43 40.67 6.58 40.67 6.76C40.67 6.96 40.68 7.13 40.73 7.31L41.76 7.29L41.76 11.77C41.76 12.74 42.28 13.22 43.23 13.22C43.79 13.22 44.34 13.17 44.80 13.12C44.83 13.02 44.83 12.91 44.83 12.81C44.83 12.56 44.79 12.28 44.72 12.08L43.75 12.08C43.33 12.08 43.18 11.84 43.18 11.47L43.18 7.28L44.90 7.31C44.95 7.13 44.97 6.96 44.97 6.76C44.97 6.58 44.95 6.43 44.90 6.23Z"></path></g><!----><g data-v-423bf9ae="" id="5f2a53e0-8492-4c50-9136-23a21d962dc8" transform="matrix(1.0975609756097562,0,0,1.0975609756097562,73.1219512195122,-8.78048780487805)" stroke="none" fill="white"><g><path d="M35 62a2 2 0 1 0 0-4 2 2 0 0 0 0 4zm0 4a6 6 0 1 1 0-12 6 6 0 0 1 0 12zm30-4a2 2 0 1 0 0-4 2 2 0 0 0 0 4zm0 4a6 6 0 1 1 0-12 6 6 0 0 1 0 12z"></path><path d="M50 20c21.434 0 31.382 8.614 36 16.61V10h4v60s0 20-40 20-40-20-40-20V10h4v26.61C18.618 28.614 28.566 20 50 20zM20 60c0-8.284 6.708-15 15.005-15h29.99C73.282 45 80 51.714 80 60c0 8.284-6.708 15-15.005 15h-29.99C26.718 75 20 68.286 20 60zm-6-50a2 2 0 1 0-4 0h4zm76 0a2 2 0 1 0-4 0h4z"></path></g></g><!----></svg>