<svg data-v-423bf9ae="" xmlns="http://www.w3.org/2000/svg" viewBox="0 0 58.536585365853654 60" class="icon"><!----><!----><!----><!----><g data-v-423bf9ae="" id="948a20de-e7bf-4736-8e2f-7e4205aa48d7" transform="matrix(0.7317073170731707,0,0,0.7317073170731707,-7.317072472921232,-5.853658536585364)" stroke="none" fill="white"><g><path d="M35 62a2 2 0 1 0 0-4 2 2 0 0 0 0 4zm0 4a6 6 0 1 1 0-12 6 6 0 0 1 0 12zm30-4a2 2 0 1 0 0-4 2 2 0 0 0 0 4zm0 4a6 6 0 1 1 0-12 6 6 0 0 1 0 12z"></path><path d="M50 20c21.434 0 31.382 8.614 36 16.61V10h4v60s0 20-40 20-40-20-40-20V10h4v26.61C18.618 28.614 28.566 20 50 20zM20 60c0-8.284 6.708-15 15.005-15h29.99C73.282 45 80 51.714 80 60c0 8.284-6.708 15-15.005 15h-29.99C26.718 75 20 68.286 20 60zm-6-50a2 2 0 1 0-4 0h4zm76 0a2 2 0 1 0-4 0h4z"></path></g></g><!----></svg>